<?xml version="1.0" standalone="no"?>
<!DOCTYPE svg PUBLIC "-//W3C//DTD SVG 20010904//EN"
 "http://www.w3.org/TR/2001/REC-SVG-20010904/DTD/svg10.dtd">
<svg version="1.0" xmlns="http://www.w3.org/2000/svg"
 width="512.000000pt" height="512.000000pt" viewBox="0 0 512.000000 512.000000"
 preserveAspectRatio="xMidYMid meet">
<metadata>
Created by potrace 1.14, written by Peter Selinger 2001-2017
</metadata>
<g transform="translate(0.000000,512.000000) scale(0.100000,-0.100000)"
fill="#000000" stroke="none">
<path d="M500 4970 c0 -4 -6 -7 -12 -7 -28 0 -88 -37 -139 -85 -30 -28 -53
-54 -51 -57 1 -3 -4 -13 -11 -21 -7 -9 -23 -38 -36 -65 -12 -28 -27 -58 -33
-69 -10 -19 -19 -51 -20 -73 -1 -7 -6 -13 -12 -13 -6 0 -4 -5 4 -10 12 -8 12
-10 1 -10 -8 0 -11 -3 -8 -6 3 -4 2 -15 -3 -25 -6 -10 -12 -39 -14 -66 -3 -26
-5 -48 -6 -48 -5 0 -10 -93 -13 -217 -2 -76 0 -138 3 -138 3 0 5 -18 4 -40 0
-23 3 -43 8 -46 5 -3 6 -8 4 -12 -3 -6 5 -62 20 -132 3 -14 6 -31 6 -37 1 -7
6 -13 11 -13 5 0 7 -7 3 -15 -3 -8 -1 -15 5 -15 6 0 8 -4 4 -9 -3 -5 -1 -12 4
-15 5 -3 12 -17 15 -31 10 -41 74 -141 118 -186 23 -23 67 -53 97 -68 52 -24
66 -26 199 -26 98 0 135 -3 120 -9 -118 -49 -175 -96 -232 -190 -29 -48 -72
-154 -82 -201 -22 -102 -28 -357 -10 -435 3 -14 9 -38 12 -55 10 -45 56 -159
68 -167 6 -4 7 -8 3 -8 -15 0 58 -92 108 -136 27 -24 58 -44 67 -44 10 0 18
-4 18 -10 0 -5 8 -10 18 -10 9 0 23 -4 31 -9 10 -6 -6 -9 -47 -10 -34 0 -71
-5 -82 -11 -11 -6 -20 -8 -20 -5 0 15 -93 -63 -126 -104 -55 -71 -142 -268
-147 -333 -1 -10 -4 -18 -8 -18 -4 0 -6 -8 -5 -18 2 -9 -1 -32 -6 -51 -6 -19
-11 -48 -13 -65 -2 -17 -4 -31 -5 -31 -1 0 -3 -22 -5 -50 -2 -27 -7 -77 -11
-110 -15 -134 -2 -473 22 -595 3 -14 7 -34 9 -45 2 -11 7 -31 10 -45 3 -14 8
-34 10 -45 5 -26 11 -46 18 -65 3 -8 11 -33 17 -55 7 -22 28 -71 47 -109 58
-117 115 -180 194 -216 37 -16 169 -17 2142 -15 1156 1 2109 3 2117 3 8 1 27
12 41 25 63 54 73 145 22 199 -15 17 -41 36 -58 44 -16 7 -24 13 -18 14 34 1
71 119 88 279 2 23 7 46 10 51 3 6 1 10 -6 10 -7 0 -8 4 -2 13 5 6 11 41 13
77 6 101 4 497 -3 575 -3 39 -8 96 -11 127 -6 72 -13 114 -25 156 -5 18 -10
35 -10 37 -1 3 -2 7 -2 10 -1 3 -3 10 -4 15 -1 6 -3 14 -4 20 0 5 -13 21 -28
35 -17 16 -21 23 -11 19 12 -4 20 0 24 10 3 9 10 14 14 11 5 -3 21 11 36 31
53 69 27 176 -50 210 l-31 13 50 1 c144 3 198 43 199 147 1 59 -20 96 -73 124
-31 17 -32 18 -12 29 50 26 81 137 87 310 5 137 -8 245 -38 309 -11 25 -21 49
-20 53 1 4 -7 10 -18 13 -27 9 -25 17 10 37 91 52 89 188 -2 243 -24 14 -69
16 -325 17 -164 1 -288 4 -277 7 35 10 74 44 91 78 13 27 14 63 4 121 -3 13
-74 72 -88 72 -14 0 -14 3 5 20 23 21 49 74 55 113 2 12 7 29 10 37 9 22 17
100 23 225 2 61 7 116 9 123 2 6 1 12 -3 12 -4 0 -7 37 -8 83 0 105 -14 237
-24 237 -5 0 -7 11 -5 25 1 14 -2 25 -6 25 -5 0 -8 3 -7 8 4 20 -17 64 -38 81
-23 18 -24 20 -6 26 72 22 112 120 79 190 -13 28 -65 75 -85 77 -58 5 -3952 3
-3952 -2z"/>
</g>
</svg>
